<svg width="52" height="52" viewBox="0 0 52 52" fill="none" xmlns="http://www.w3.org/2000/svg">
<rect x="0.530273" y="0.742188" width="51.246" height="51.246" rx="25.623" fill="#12141D"/>
<path d="M22.0358 20.8745V31.8558C22.0357 31.9779 22.0683 32.0978 22.1301 32.2032C22.1918 32.3085 22.2806 32.3955 22.3872 32.4551C22.4938 32.5147 22.6143 32.5447 22.7364 32.5422C22.8585 32.5396 22.9777 32.5046 23.0817 32.4406L32.004 26.9499C32.104 26.8885 32.1865 26.8025 32.2437 26.7002C32.301 26.5978 32.331 26.4824 32.331 26.3652C32.331 26.2479 32.301 26.1325 32.2437 26.0302C32.1865 25.9278 32.104 25.8418 32.004 25.7804L23.0817 20.2898C22.9777 20.2258 22.8585 20.1907 22.7364 20.1881C22.6143 20.1856 22.4938 20.2157 22.3872 20.2753C22.2806 20.3348 22.1918 20.4218 22.1301 20.5271C22.0683 20.6325 22.0357 20.7524 22.0358 20.8745Z" fill="#FFFEFD"/>
</svg>
